<svg width="18" height="14" viewBox="0 0 18 14" fill="none" xmlns="http://www.w3.org/2000/svg">
<path fill-rule="evenodd" clip-rule="evenodd" d="M7.7075 0.287501C7.8975 0.487501 7.9975 0.737501 7.9975 0.997501C7.9975 1.2575 7.8975 1.5075 7.7075 1.7075L3.4075 5.9975L16.9975 5.9975C17.5475 5.9975 17.9975 6.4475 17.9975 6.9975C17.9975 7.5475 17.5475 7.9975 16.9975 7.9975L3.4075 7.9975L7.7075 12.2875C8.0975 12.6775 8.0975 13.3175 7.7075 13.7075C7.3175 14.0975 6.6775 14.0975 6.2875 13.7075L0.2875 7.7075C0.1975 7.6175 0.1275 7.5075 0.0775003 7.3875C0.0575003 7.3375 0.0375003 7.2975 0.0375003 7.2475C-0.0124997 7.0875 -0.0124997 6.9075 0.0375003 6.7475C0.0375003 6.6975 0.0575003 6.6575 0.0775003 6.6075C0.1275 6.4875 0.1975 6.3775 0.2875 6.2875L6.2875 0.287501C6.6775 -0.1025 7.3175 -0.1025 7.7075 0.287501Z" fill="#313037"/>
</svg>
